<mxfile host="Electron" modified="2024-11-29T13:20:56.450Z" agent="Mozilla/5.0 (X11; Linux x86_64) AppleWebKit/537.36 (KHTML, like Gecko) draw.io/24.6.1 Chrome/124.0.6367.207 Electron/30.0.6 Safari/537.36" etag="hSZGiqjF3QkgAjfMzuNu" version="24.6.1" type="device">
  <diagram name="Seite-1" id="hH9EwzxjuDayfFVqg65d">
    <mxGraphModel dx="734" dy="549" grid="1" gridSize="10" guides="1" tooltips="1" connect="1" arrows="1" fold="1" page="1" pageScale="1" pageWidth="693" pageHeight="300" math="0" shadow="0">
      <root>
        <mxCell id="0" />
        <mxCell id="1" parent="0" />
        <mxCell id="b3PtVijSFrBXYt2F4P9U-196" value="" style="rounded=0;whiteSpace=wrap;html=1;fillColor=#fa6800;fontColor=#000000;strokeColor=#C73500;" vertex="1" parent="1">
          <mxGeometry x="260" y="265" width="160" height="20" as="geometry" />
        </mxCell>
        <mxCell id="b3PtVijSFrBXYt2F4P9U-194" value="" style="rounded=0;whiteSpace=wrap;html=1;fillColor=#fa6800;fontColor=#000000;strokeColor=#C73500;" vertex="1" parent="1">
          <mxGeometry x="100" y="265" width="160" height="20" as="geometry" />
        </mxCell>
        <mxCell id="b3PtVijSFrBXYt2F4P9U-1" value="" style="rounded=0;whiteSpace=wrap;html=1;fillColor=#1ba1e2;fontColor=#ffffff;strokeColor=#006EAF;" vertex="1" parent="1">
          <mxGeometry x="100" y="105" width="40" height="20" as="geometry" />
        </mxCell>
        <mxCell id="b3PtVijSFrBXYt2F4P9U-2" value="" style="rounded=0;whiteSpace=wrap;html=1;fillColor=#1ba1e2;fontColor=#ffffff;strokeColor=#006EAF;" vertex="1" parent="1">
          <mxGeometry x="140" y="105" width="40" height="20" as="geometry" />
        </mxCell>
        <mxCell id="b3PtVijSFrBXYt2F4P9U-3" value="" style="rounded=0;whiteSpace=wrap;html=1;fillColor=#1ba1e2;fontColor=#ffffff;strokeColor=#006EAF;" vertex="1" parent="1">
          <mxGeometry x="180" y="105" width="40" height="20" as="geometry" />
        </mxCell>
        <mxCell id="b3PtVijSFrBXYt2F4P9U-4" value="" style="rounded=0;whiteSpace=wrap;html=1;fillColor=#1ba1e2;fontColor=#ffffff;strokeColor=#006EAF;" vertex="1" parent="1">
          <mxGeometry x="220" y="105" width="40" height="20" as="geometry" />
        </mxCell>
        <mxCell id="b3PtVijSFrBXYt2F4P9U-5" value="" style="rounded=0;whiteSpace=wrap;html=1;fillColor=#1ba1e2;fontColor=#ffffff;strokeColor=#006EAF;" vertex="1" parent="1">
          <mxGeometry x="260" y="105" width="40" height="20" as="geometry" />
        </mxCell>
        <mxCell id="b3PtVijSFrBXYt2F4P9U-6" value="" style="rounded=0;whiteSpace=wrap;html=1;fillColor=#1ba1e2;fontColor=#ffffff;strokeColor=#006EAF;" vertex="1" parent="1">
          <mxGeometry x="300" y="105" width="40" height="20" as="geometry" />
        </mxCell>
        <mxCell id="b3PtVijSFrBXYt2F4P9U-7" value="" style="rounded=0;whiteSpace=wrap;html=1;fillColor=#1ba1e2;fontColor=#ffffff;strokeColor=#006EAF;" vertex="1" parent="1">
          <mxGeometry x="340" y="105" width="40" height="20" as="geometry" />
        </mxCell>
        <mxCell id="b3PtVijSFrBXYt2F4P9U-8" value="" style="rounded=0;whiteSpace=wrap;html=1;fillColor=#1ba1e2;fontColor=#ffffff;strokeColor=#006EAF;" vertex="1" parent="1">
          <mxGeometry x="380" y="105" width="40" height="20" as="geometry" />
        </mxCell>
        <mxCell id="b3PtVijSFrBXYt2F4P9U-10" value="" style="rounded=0;whiteSpace=wrap;html=1;fillColor=#1ba1e2;fontColor=#ffffff;strokeColor=#006EAF;" vertex="1" parent="1">
          <mxGeometry x="420" y="105" width="40" height="20" as="geometry" />
        </mxCell>
        <mxCell id="b3PtVijSFrBXYt2F4P9U-11" value="" style="rounded=0;whiteSpace=wrap;html=1;fillColor=#1ba1e2;fontColor=#ffffff;strokeColor=#006EAF;" vertex="1" parent="1">
          <mxGeometry x="460" y="105" width="40" height="20" as="geometry" />
        </mxCell>
        <mxCell id="b3PtVijSFrBXYt2F4P9U-12" value="" style="rounded=0;whiteSpace=wrap;html=1;fillColor=#1ba1e2;fontColor=#ffffff;strokeColor=#006EAF;" vertex="1" parent="1">
          <mxGeometry x="500" y="105" width="40" height="20" as="geometry" />
        </mxCell>
        <mxCell id="b3PtVijSFrBXYt2F4P9U-13" value="" style="rounded=0;whiteSpace=wrap;html=1;fillColor=#1ba1e2;fontColor=#ffffff;strokeColor=#006EAF;" vertex="1" parent="1">
          <mxGeometry x="540" y="105" width="40" height="20" as="geometry" />
        </mxCell>
        <mxCell id="b3PtVijSFrBXYt2F4P9U-14" value="" style="rounded=0;whiteSpace=wrap;html=1;fillColor=#008a00;fontColor=#ffffff;strokeColor=#005700;" vertex="1" parent="1">
          <mxGeometry x="500" y="145" width="80" height="20" as="geometry" />
        </mxCell>
        <mxCell id="b3PtVijSFrBXYt2F4P9U-15" value="" style="rounded=0;whiteSpace=wrap;html=1;fillColor=#008a00;fontColor=#ffffff;strokeColor=#005700;" vertex="1" parent="1">
          <mxGeometry x="420" y="145" width="80" height="20" as="geometry" />
        </mxCell>
        <mxCell id="b3PtVijSFrBXYt2F4P9U-16" value="" style="rounded=0;whiteSpace=wrap;html=1;fillColor=#008a00;fontColor=#ffffff;strokeColor=#005700;" vertex="1" parent="1">
          <mxGeometry x="340" y="145" width="80" height="20" as="geometry" />
        </mxCell>
        <mxCell id="b3PtVijSFrBXYt2F4P9U-17" value="" style="rounded=0;whiteSpace=wrap;html=1;fillColor=#008a00;fontColor=#ffffff;strokeColor=#005700;" vertex="1" parent="1">
          <mxGeometry x="260" y="145" width="80" height="20" as="geometry" />
        </mxCell>
        <mxCell id="b3PtVijSFrBXYt2F4P9U-19" value="" style="rounded=0;whiteSpace=wrap;html=1;fillColor=#008a00;fontColor=#ffffff;strokeColor=#005700;" vertex="1" parent="1">
          <mxGeometry x="180" y="145" width="80" height="20" as="geometry" />
        </mxCell>
        <mxCell id="b3PtVijSFrBXYt2F4P9U-20" value="" style="rounded=0;whiteSpace=wrap;html=1;fillColor=#008a00;fontColor=#ffffff;strokeColor=#005700;" vertex="1" parent="1">
          <mxGeometry x="100" y="145" width="80" height="20" as="geometry" />
        </mxCell>
        <mxCell id="b3PtVijSFrBXYt2F4P9U-21" value="" style="rounded=0;whiteSpace=wrap;html=1;fillColor=#fa6800;fontColor=#000000;strokeColor=#C73500;" vertex="1" parent="1">
          <mxGeometry x="100" y="185" width="40" height="20" as="geometry" />
        </mxCell>
        <mxCell id="b3PtVijSFrBXYt2F4P9U-22" value="" style="rounded=0;whiteSpace=wrap;html=1;fillColor=#fa6800;fontColor=#000000;strokeColor=#C73500;" vertex="1" parent="1">
          <mxGeometry x="140" y="185" width="40" height="20" as="geometry" />
        </mxCell>
        <mxCell id="b3PtVijSFrBXYt2F4P9U-23" value="" style="rounded=0;whiteSpace=wrap;html=1;fillColor=#fa6800;fontColor=#000000;strokeColor=#C73500;" vertex="1" parent="1">
          <mxGeometry x="180" y="185" width="40" height="20" as="geometry" />
        </mxCell>
        <mxCell id="b3PtVijSFrBXYt2F4P9U-24" value="" style="rounded=0;whiteSpace=wrap;html=1;fillColor=#fa6800;fontColor=#000000;strokeColor=#C73500;" vertex="1" parent="1">
          <mxGeometry x="220" y="185" width="40" height="20" as="geometry" />
        </mxCell>
        <mxCell id="b3PtVijSFrBXYt2F4P9U-25" value="" style="rounded=0;whiteSpace=wrap;html=1;fillColor=#fa6800;fontColor=#000000;strokeColor=#C73500;" vertex="1" parent="1">
          <mxGeometry x="260" y="185" width="40" height="20" as="geometry" />
        </mxCell>
        <mxCell id="b3PtVijSFrBXYt2F4P9U-26" value="" style="rounded=0;whiteSpace=wrap;html=1;fillColor=#fa6800;fontColor=#000000;strokeColor=#C73500;" vertex="1" parent="1">
          <mxGeometry x="300" y="185" width="40" height="20" as="geometry" />
        </mxCell>
        <mxCell id="b3PtVijSFrBXYt2F4P9U-27" value="" style="rounded=0;whiteSpace=wrap;html=1;fillColor=#fa6800;fontColor=#000000;strokeColor=#C73500;" vertex="1" parent="1">
          <mxGeometry x="340" y="185" width="40" height="20" as="geometry" />
        </mxCell>
        <mxCell id="b3PtVijSFrBXYt2F4P9U-28" value="" style="rounded=0;whiteSpace=wrap;html=1;fillColor=#fa6800;fontColor=#000000;strokeColor=#C73500;" vertex="1" parent="1">
          <mxGeometry x="380" y="185" width="40" height="20" as="geometry" />
        </mxCell>
        <mxCell id="b3PtVijSFrBXYt2F4P9U-29" value="" style="rounded=0;whiteSpace=wrap;html=1;fillColor=#fa6800;fontColor=#000000;strokeColor=#C73500;" vertex="1" parent="1">
          <mxGeometry x="420" y="185" width="40" height="20" as="geometry" />
        </mxCell>
        <mxCell id="b3PtVijSFrBXYt2F4P9U-30" value="" style="rounded=0;whiteSpace=wrap;html=1;fillColor=#fa6800;fontColor=#000000;strokeColor=#C73500;" vertex="1" parent="1">
          <mxGeometry x="460" y="185" width="40" height="20" as="geometry" />
        </mxCell>
        <mxCell id="b3PtVijSFrBXYt2F4P9U-31" value="" style="rounded=0;whiteSpace=wrap;html=1;fillColor=#fa6800;fontColor=#000000;strokeColor=#C73500;" vertex="1" parent="1">
          <mxGeometry x="500" y="185" width="40" height="20" as="geometry" />
        </mxCell>
        <mxCell id="b3PtVijSFrBXYt2F4P9U-32" value="" style="rounded=0;whiteSpace=wrap;html=1;fillColor=#fa6800;fontColor=#000000;strokeColor=#C73500;" vertex="1" parent="1">
          <mxGeometry x="540" y="185" width="40" height="20" as="geometry" />
        </mxCell>
        <mxCell id="b3PtVijSFrBXYt2F4P9U-33" value="" style="rounded=0;whiteSpace=wrap;html=1;fillColor=#fa6800;fontColor=#000000;strokeColor=#C73500;" vertex="1" parent="1">
          <mxGeometry x="500" y="225" width="80" height="20" as="geometry" />
        </mxCell>
        <mxCell id="b3PtVijSFrBXYt2F4P9U-34" value="" style="rounded=0;whiteSpace=wrap;html=1;fillColor=#fa6800;fontColor=#000000;strokeColor=#C73500;" vertex="1" parent="1">
          <mxGeometry x="420" y="225" width="80" height="20" as="geometry" />
        </mxCell>
        <mxCell id="b3PtVijSFrBXYt2F4P9U-35" value="" style="rounded=0;whiteSpace=wrap;html=1;fillColor=#fa6800;fontColor=#000000;strokeColor=#C73500;" vertex="1" parent="1">
          <mxGeometry x="340" y="225" width="80" height="20" as="geometry" />
        </mxCell>
        <mxCell id="b3PtVijSFrBXYt2F4P9U-36" value="" style="rounded=0;whiteSpace=wrap;html=1;fillColor=#fa6800;fontColor=#000000;strokeColor=#C73500;" vertex="1" parent="1">
          <mxGeometry x="260" y="225" width="80" height="20" as="geometry" />
        </mxCell>
        <mxCell id="b3PtVijSFrBXYt2F4P9U-37" value="" style="rounded=0;whiteSpace=wrap;html=1;fillColor=#fa6800;fontColor=#000000;strokeColor=#C73500;" vertex="1" parent="1">
          <mxGeometry x="180" y="225" width="80" height="20" as="geometry" />
        </mxCell>
        <mxCell id="b3PtVijSFrBXYt2F4P9U-38" value="" style="rounded=0;whiteSpace=wrap;html=1;fillColor=#fa6800;fontColor=#000000;strokeColor=#C73500;" vertex="1" parent="1">
          <mxGeometry x="100" y="225" width="80" height="20" as="geometry" />
        </mxCell>
        <mxCell id="b3PtVijSFrBXYt2F4P9U-39" value="" style="rounded=0;whiteSpace=wrap;html=1;fillColor=#fa6800;fontColor=#000000;strokeColor=#C73500;" vertex="1" parent="1">
          <mxGeometry x="100" y="65" width="10" height="20" as="geometry" />
        </mxCell>
        <mxCell id="b3PtVijSFrBXYt2F4P9U-40" value="" style="rounded=0;whiteSpace=wrap;html=1;fillColor=#fa6800;fontColor=#000000;strokeColor=#C73500;" vertex="1" parent="1">
          <mxGeometry x="110" y="65" width="10" height="20" as="geometry" />
        </mxCell>
        <mxCell id="b3PtVijSFrBXYt2F4P9U-41" value="" style="rounded=0;whiteSpace=wrap;html=1;fillColor=#fa6800;fontColor=#000000;strokeColor=#C73500;" vertex="1" parent="1">
          <mxGeometry x="120" y="65" width="10" height="20" as="geometry" />
        </mxCell>
        <mxCell id="b3PtVijSFrBXYt2F4P9U-42" value="" style="rounded=0;whiteSpace=wrap;html=1;fillColor=#fa6800;fontColor=#000000;strokeColor=#C73500;" vertex="1" parent="1">
          <mxGeometry x="130" y="65" width="10" height="20" as="geometry" />
        </mxCell>
        <mxCell id="b3PtVijSFrBXYt2F4P9U-43" value="" style="rounded=0;whiteSpace=wrap;html=1;fillColor=#fa6800;fontColor=#000000;strokeColor=#C73500;" vertex="1" parent="1">
          <mxGeometry x="140" y="65" width="10" height="20" as="geometry" />
        </mxCell>
        <mxCell id="b3PtVijSFrBXYt2F4P9U-44" value="" style="rounded=0;whiteSpace=wrap;html=1;fillColor=#fa6800;fontColor=#000000;strokeColor=#C73500;" vertex="1" parent="1">
          <mxGeometry x="150" y="65" width="10" height="20" as="geometry" />
        </mxCell>
        <mxCell id="b3PtVijSFrBXYt2F4P9U-45" value="" style="rounded=0;whiteSpace=wrap;html=1;fillColor=#fa6800;fontColor=#000000;strokeColor=#C73500;" vertex="1" parent="1">
          <mxGeometry x="160" y="65" width="10" height="20" as="geometry" />
        </mxCell>
        <mxCell id="b3PtVijSFrBXYt2F4P9U-46" value="" style="rounded=0;whiteSpace=wrap;html=1;fillColor=#fa6800;fontColor=#000000;strokeColor=#C73500;" vertex="1" parent="1">
          <mxGeometry x="170" y="65" width="10" height="20" as="geometry" />
        </mxCell>
        <mxCell id="b3PtVijSFrBXYt2F4P9U-47" value="" style="rounded=0;whiteSpace=wrap;html=1;fillColor=#fa6800;fontColor=#000000;strokeColor=#C73500;" vertex="1" parent="1">
          <mxGeometry x="180" y="65" width="10" height="20" as="geometry" />
        </mxCell>
        <mxCell id="b3PtVijSFrBXYt2F4P9U-48" value="" style="rounded=0;whiteSpace=wrap;html=1;fillColor=#fa6800;fontColor=#000000;strokeColor=#C73500;" vertex="1" parent="1">
          <mxGeometry x="190" y="65" width="10" height="20" as="geometry" />
        </mxCell>
        <mxCell id="b3PtVijSFrBXYt2F4P9U-49" value="" style="rounded=0;whiteSpace=wrap;html=1;fillColor=#fa6800;fontColor=#000000;strokeColor=#C73500;" vertex="1" parent="1">
          <mxGeometry x="200" y="65" width="10" height="20" as="geometry" />
        </mxCell>
        <mxCell id="b3PtVijSFrBXYt2F4P9U-50" value="" style="rounded=0;whiteSpace=wrap;html=1;fillColor=#fa6800;fontColor=#000000;strokeColor=#C73500;" vertex="1" parent="1">
          <mxGeometry x="210" y="65" width="10" height="20" as="geometry" />
        </mxCell>
        <mxCell id="b3PtVijSFrBXYt2F4P9U-51" value="" style="rounded=0;whiteSpace=wrap;html=1;fillColor=#fa6800;fontColor=#000000;strokeColor=#C73500;" vertex="1" parent="1">
          <mxGeometry x="220" y="65" width="10" height="20" as="geometry" />
        </mxCell>
        <mxCell id="b3PtVijSFrBXYt2F4P9U-52" value="" style="rounded=0;whiteSpace=wrap;html=1;fillColor=#fa6800;fontColor=#000000;strokeColor=#C73500;" vertex="1" parent="1">
          <mxGeometry x="230" y="65" width="10" height="20" as="geometry" />
        </mxCell>
        <mxCell id="b3PtVijSFrBXYt2F4P9U-53" value="" style="rounded=0;whiteSpace=wrap;html=1;fillColor=#fa6800;fontColor=#000000;strokeColor=#C73500;" vertex="1" parent="1">
          <mxGeometry x="240" y="65" width="10" height="20" as="geometry" />
        </mxCell>
        <mxCell id="b3PtVijSFrBXYt2F4P9U-54" value="" style="rounded=0;whiteSpace=wrap;html=1;fillColor=#fa6800;fontColor=#000000;strokeColor=#C73500;" vertex="1" parent="1">
          <mxGeometry x="250" y="65" width="10" height="20" as="geometry" />
        </mxCell>
        <mxCell id="b3PtVijSFrBXYt2F4P9U-55" value="" style="rounded=0;whiteSpace=wrap;html=1;fillColor=#fa6800;fontColor=#000000;strokeColor=#C73500;" vertex="1" parent="1">
          <mxGeometry x="260" y="65" width="10" height="20" as="geometry" />
        </mxCell>
        <mxCell id="b3PtVijSFrBXYt2F4P9U-56" value="" style="rounded=0;whiteSpace=wrap;html=1;fillColor=#fa6800;fontColor=#000000;strokeColor=#C73500;" vertex="1" parent="1">
          <mxGeometry x="270" y="65" width="10" height="20" as="geometry" />
        </mxCell>
        <mxCell id="b3PtVijSFrBXYt2F4P9U-57" value="" style="rounded=0;whiteSpace=wrap;html=1;fillColor=#fa6800;fontColor=#000000;strokeColor=#C73500;" vertex="1" parent="1">
          <mxGeometry x="280" y="65" width="10" height="20" as="geometry" />
        </mxCell>
        <mxCell id="b3PtVijSFrBXYt2F4P9U-58" value="" style="rounded=0;whiteSpace=wrap;html=1;fillColor=#fa6800;fontColor=#000000;strokeColor=#C73500;" vertex="1" parent="1">
          <mxGeometry x="290" y="65" width="10" height="20" as="geometry" />
        </mxCell>
        <mxCell id="b3PtVijSFrBXYt2F4P9U-59" value="" style="rounded=0;whiteSpace=wrap;html=1;fillColor=#fa6800;fontColor=#000000;strokeColor=#C73500;" vertex="1" parent="1">
          <mxGeometry x="300" y="65" width="10" height="20" as="geometry" />
        </mxCell>
        <mxCell id="b3PtVijSFrBXYt2F4P9U-60" value="" style="rounded=0;whiteSpace=wrap;html=1;fillColor=#fa6800;fontColor=#000000;strokeColor=#C73500;" vertex="1" parent="1">
          <mxGeometry x="310" y="65" width="10" height="20" as="geometry" />
        </mxCell>
        <mxCell id="b3PtVijSFrBXYt2F4P9U-61" value="" style="rounded=0;whiteSpace=wrap;html=1;fillColor=#fa6800;fontColor=#000000;strokeColor=#C73500;" vertex="1" parent="1">
          <mxGeometry x="320" y="65" width="10" height="20" as="geometry" />
        </mxCell>
        <mxCell id="b3PtVijSFrBXYt2F4P9U-62" value="" style="rounded=0;whiteSpace=wrap;html=1;fillColor=#fa6800;fontColor=#000000;strokeColor=#C73500;" vertex="1" parent="1">
          <mxGeometry x="330" y="65" width="10" height="20" as="geometry" />
        </mxCell>
        <mxCell id="b3PtVijSFrBXYt2F4P9U-63" value="" style="rounded=0;whiteSpace=wrap;html=1;fillColor=#fa6800;fontColor=#000000;strokeColor=#C73500;" vertex="1" parent="1">
          <mxGeometry x="340" y="65" width="10" height="20" as="geometry" />
        </mxCell>
        <mxCell id="b3PtVijSFrBXYt2F4P9U-64" value="" style="rounded=0;whiteSpace=wrap;html=1;fillColor=#fa6800;fontColor=#000000;strokeColor=#C73500;" vertex="1" parent="1">
          <mxGeometry x="350" y="65" width="10" height="20" as="geometry" />
        </mxCell>
        <mxCell id="b3PtVijSFrBXYt2F4P9U-65" value="" style="rounded=0;whiteSpace=wrap;html=1;fillColor=#fa6800;fontColor=#000000;strokeColor=#C73500;" vertex="1" parent="1">
          <mxGeometry x="360" y="65" width="10" height="20" as="geometry" />
        </mxCell>
        <mxCell id="b3PtVijSFrBXYt2F4P9U-66" value="" style="rounded=0;whiteSpace=wrap;html=1;fillColor=#fa6800;fontColor=#000000;strokeColor=#C73500;" vertex="1" parent="1">
          <mxGeometry x="370" y="65" width="10" height="20" as="geometry" />
        </mxCell>
        <mxCell id="b3PtVijSFrBXYt2F4P9U-67" value="" style="rounded=0;whiteSpace=wrap;html=1;fillColor=#fa6800;fontColor=#000000;strokeColor=#C73500;" vertex="1" parent="1">
          <mxGeometry x="380" y="65" width="10" height="20" as="geometry" />
        </mxCell>
        <mxCell id="b3PtVijSFrBXYt2F4P9U-68" value="" style="rounded=0;whiteSpace=wrap;html=1;fillColor=#fa6800;fontColor=#000000;strokeColor=#C73500;" vertex="1" parent="1">
          <mxGeometry x="390" y="65" width="10" height="20" as="geometry" />
        </mxCell>
        <mxCell id="b3PtVijSFrBXYt2F4P9U-69" value="" style="rounded=0;whiteSpace=wrap;html=1;fillColor=#fa6800;fontColor=#000000;strokeColor=#C73500;" vertex="1" parent="1">
          <mxGeometry x="400" y="65" width="10" height="20" as="geometry" />
        </mxCell>
        <mxCell id="b3PtVijSFrBXYt2F4P9U-70" value="" style="rounded=0;whiteSpace=wrap;html=1;fillColor=#fa6800;fontColor=#000000;strokeColor=#C73500;" vertex="1" parent="1">
          <mxGeometry x="410" y="65" width="10" height="20" as="geometry" />
        </mxCell>
        <mxCell id="b3PtVijSFrBXYt2F4P9U-71" value="" style="rounded=0;whiteSpace=wrap;html=1;fillColor=#fa6800;fontColor=#000000;strokeColor=#C73500;" vertex="1" parent="1">
          <mxGeometry x="420" y="65" width="10" height="20" as="geometry" />
        </mxCell>
        <mxCell id="b3PtVijSFrBXYt2F4P9U-72" value="" style="rounded=0;whiteSpace=wrap;html=1;fillColor=#fa6800;fontColor=#000000;strokeColor=#C73500;" vertex="1" parent="1">
          <mxGeometry x="430" y="65" width="10" height="20" as="geometry" />
        </mxCell>
        <mxCell id="b3PtVijSFrBXYt2F4P9U-73" value="" style="rounded=0;whiteSpace=wrap;html=1;fillColor=#fa6800;fontColor=#000000;strokeColor=#C73500;" vertex="1" parent="1">
          <mxGeometry x="440" y="65" width="10" height="20" as="geometry" />
        </mxCell>
        <mxCell id="b3PtVijSFrBXYt2F4P9U-74" value="" style="rounded=0;whiteSpace=wrap;html=1;fillColor=#fa6800;fontColor=#000000;strokeColor=#C73500;" vertex="1" parent="1">
          <mxGeometry x="450" y="65" width="10" height="20" as="geometry" />
        </mxCell>
        <mxCell id="b3PtVijSFrBXYt2F4P9U-75" value="" style="rounded=0;whiteSpace=wrap;html=1;fillColor=#fa6800;fontColor=#000000;strokeColor=#C73500;" vertex="1" parent="1">
          <mxGeometry x="460" y="65" width="10" height="20" as="geometry" />
        </mxCell>
        <mxCell id="b3PtVijSFrBXYt2F4P9U-76" value="" style="rounded=0;whiteSpace=wrap;html=1;fillColor=#fa6800;fontColor=#000000;strokeColor=#C73500;" vertex="1" parent="1">
          <mxGeometry x="470" y="65" width="10" height="20" as="geometry" />
        </mxCell>
        <mxCell id="b3PtVijSFrBXYt2F4P9U-77" value="" style="rounded=0;whiteSpace=wrap;html=1;fillColor=#fa6800;fontColor=#000000;strokeColor=#C73500;" vertex="1" parent="1">
          <mxGeometry x="480" y="65" width="10" height="20" as="geometry" />
        </mxCell>
        <mxCell id="b3PtVijSFrBXYt2F4P9U-78" value="" style="rounded=0;whiteSpace=wrap;html=1;fillColor=#fa6800;fontColor=#000000;strokeColor=#C73500;" vertex="1" parent="1">
          <mxGeometry x="490" y="65" width="10" height="20" as="geometry" />
        </mxCell>
        <mxCell id="b3PtVijSFrBXYt2F4P9U-79" value="" style="rounded=0;whiteSpace=wrap;html=1;fillColor=#fa6800;fontColor=#000000;strokeColor=#C73500;" vertex="1" parent="1">
          <mxGeometry x="500" y="65" width="10" height="20" as="geometry" />
        </mxCell>
        <mxCell id="b3PtVijSFrBXYt2F4P9U-80" value="" style="rounded=0;whiteSpace=wrap;html=1;fillColor=#fa6800;fontColor=#000000;strokeColor=#C73500;" vertex="1" parent="1">
          <mxGeometry x="510" y="65" width="10" height="20" as="geometry" />
        </mxCell>
        <mxCell id="b3PtVijSFrBXYt2F4P9U-81" value="" style="rounded=0;whiteSpace=wrap;html=1;fillColor=#fa6800;fontColor=#000000;strokeColor=#C73500;" vertex="1" parent="1">
          <mxGeometry x="520" y="65" width="10" height="20" as="geometry" />
        </mxCell>
        <mxCell id="b3PtVijSFrBXYt2F4P9U-82" value="" style="rounded=0;whiteSpace=wrap;html=1;fillColor=#fa6800;fontColor=#000000;strokeColor=#C73500;" vertex="1" parent="1">
          <mxGeometry x="530" y="65" width="10" height="20" as="geometry" />
        </mxCell>
        <mxCell id="b3PtVijSFrBXYt2F4P9U-83" value="" style="rounded=0;whiteSpace=wrap;html=1;fillColor=#fa6800;fontColor=#000000;strokeColor=#C73500;" vertex="1" parent="1">
          <mxGeometry x="540" y="65" width="10" height="20" as="geometry" />
        </mxCell>
        <mxCell id="b3PtVijSFrBXYt2F4P9U-84" value="" style="rounded=0;whiteSpace=wrap;html=1;fillColor=#fa6800;fontColor=#000000;strokeColor=#C73500;" vertex="1" parent="1">
          <mxGeometry x="550" y="65" width="10" height="20" as="geometry" />
        </mxCell>
        <mxCell id="b3PtVijSFrBXYt2F4P9U-85" value="" style="rounded=0;whiteSpace=wrap;html=1;fillColor=#fa6800;fontColor=#000000;strokeColor=#C73500;" vertex="1" parent="1">
          <mxGeometry x="560" y="65" width="10" height="20" as="geometry" />
        </mxCell>
        <mxCell id="b3PtVijSFrBXYt2F4P9U-86" value="" style="rounded=0;whiteSpace=wrap;html=1;fillColor=#fa6800;fontColor=#000000;strokeColor=#C73500;" vertex="1" parent="1">
          <mxGeometry x="570" y="65" width="10" height="20" as="geometry" />
        </mxCell>
        <mxCell id="b3PtVijSFrBXYt2F4P9U-87" value="48x 8bit byte" style="text;html=1;align=center;verticalAlign=middle;whiteSpace=wrap;rounded=0;" vertex="1" parent="1">
          <mxGeometry x="580" y="60" width="100" height="30" as="geometry" />
        </mxCell>
        <mxCell id="b3PtVijSFrBXYt2F4P9U-88" value="12x 32bit float&lt;span style=&quot;color: rgba(0, 0, 0, 0); font-family: monospace; font-size: 0px; text-align: start; text-wrap: nowrap;&quot;&gt;%3CmxGraphModel%3E%3Croot%3E%3CmxCell%20id%3D%220%22%2F%3E%3CmxCell%20id%3D%221%22%20parent%3D%220%22%2F%3E%3CmxCell%20id%3D%222%22%20value%3D%2248x%208bit%20byte%22%20style%3D%22text%3Bhtml%3D1%3Balign%3Dcenter%3BverticalAlign%3Dmiddle%3BwhiteSpace%3Dwrap%3Brounded%3D0%3B%22%20vertex%3D%221%22%20parent%3D%221%22%3E%3CmxGeometry%20y%3D%22255%22%20width%3D%22110%22%20height%3D%2230%22%20as%3D%22geometry%22%2F%3E%3C%2FmxCell%3E%3C%2Froot%3E%3C%2FmxGraphModel%3E&lt;/span&gt;" style="text;html=1;align=center;verticalAlign=middle;whiteSpace=wrap;rounded=0;" vertex="1" parent="1">
          <mxGeometry x="580" y="100" width="100" height="30" as="geometry" />
        </mxCell>
        <mxCell id="b3PtVijSFrBXYt2F4P9U-89" value="6x 64b&lt;span style=&quot;color: rgba(0, 0, 0, 0); font-family: monospace; font-size: 0px; text-align: start; text-wrap: nowrap;&quot;&gt;%3CmxGraphModel%3E%3Croot%3E%3CmxCell%20id%3D%220%22%2F%3E%3CmxCell%20id%3D%221%22%20parent%3D%220%22%2F%3E%3CmxCell%20id%3D%222%22%20value%3D%2212x%2032bit%20float%26lt%3Bspan%20style%3D%26quot%3Bcolor%3A%20rgba(0%2C%200%2C%200%2C%200)%3B%20font-family%3A%20monospace%3B%20font-size%3A%200px%3B%20text-align%3A%20start%3B%20text-wrap%3A%20nowrap%3B%26quot%3B%26gt%3B%253CmxGraphModel%253E%253Croot%253E%253CmxCell%2520id%253D%25220%2522%252F%253E%253CmxCell%2520id%253D%25221%2522%2520parent%253D%25220%2522%252F%253E%253CmxCell%2520id%253D%25222%2522%2520value%253D%252248x%25208bit%2520byte%2522%2520style%253D%2522text%253Bhtml%253D1%253Balign%253Dcenter%253BverticalAlign%253Dmiddle%253BwhiteSpace%253Dwrap%253Brounded%253D0%253B%2522%2520vertex%253D%25221%2522%2520parent%253D%25221%2522%253E%253CmxGeometry%2520y%253D%2522255%2522%2520width%253D%2522110%2522%2520height%253D%252230%2522%2520as%253D%2522geometry%2522%252F%253E%253C%252FmxCell%253E%253C%252Froot%253E%253C%252FmxGraphModel%253E%26lt%3B%2Fspan%26gt%3B%22%20style%3D%22text%3Bhtml%3D1%3Balign%3Dcenter%3BverticalAlign%3Dmiddle%3BwhiteSpace%3Dwrap%3Brounded%3D0%3B%22%20vertex%3D%221%22%20parent%3D%221%22%3E%3CmxGeometry%20y%3D%22295%22%20width%3D%22110%22%20height%3D%2230%22%20as%3D%22geometry%22%2F%3E%3C%2FmxCell%3E%3C%2Froot%3E%3C%2FmxGraphModel%3E&lt;/span&gt;it double&lt;span style=&quot;color: rgba(0, 0, 0, 0); font-family: monospace; font-size: 0px; text-align: start; text-wrap: nowrap;&quot;&gt;%3CmxGraphModel%3E%3Croot%3E%3CmxCell%20id%3D%220%22%2F%3E%3CmxCell%20id%3D%221%22%20parent%3D%220%22%2F%3E%3CmxCell%20id%3D%222%22%20value%3D%2212x%2032bit%20float%26lt%3Bspan%20style%3D%26quot%3Bcolor%3A%20rgba(0%2C%200%2C%200%2C%200)%3B%20font-family%3A%20monospace%3B%20font-size%3A%200px%3B%20text-align%3A%20start%3B%20text-wrap%3A%20nowrap%3B%26quot%3B%26gt%3B%253CmxGraphModel%253E%253Croot%253E%253CmxCell%2520id%253D%25220%2522%252F%253E%253CmxCell%2520id%253D%25221%2522%2520parent%253D%25220%2522%252F%253E%253CmxCell%2520id%253D%25222%2522%2520value%253D%252248x%25208bit%2520byte%2522%2520style%253D%2522text%253Bhtml%253D1%253Balign%253Dcenter%253BverticalAlign%253Dmiddle%253BwhiteSpace%253Dwrap%253Brounded%253D0%253B%2522%2520vertex%253D%25221%2522%2520parent%253D%25221%2522%253E%253CmxGeometry%2520y%253D%2522255%2522%2520width%253D%2522110%2522%2520height%253D%252230%2522%2520as%253D%2522geometry%2522%252F%253E%253C%252FmxCell%253E%253C%252Froot%253E%253C%252FmxGraphModel%253E%26lt%3B%2Fspan%26gt%3B%22%20style%3D%22text%3Bhtml%3D1%3Balign%3Dcenter%3BverticalAlign%3Dmiddle%3BwhiteSpace%3Dwrap%3Brounded%3D0%3B%22%20vertex%3D%221%22%20parent%3D%221%22%3E%3CmxGeometry%20y%3D%22295%22%20width%3D%22110%22%20height%3D%2230%22%20as%3D%22geometry%22%2F%3E%3C%2FmxCell%3E%3C%2Froot%3E%3C%2FmxGraphModel%3E&lt;/span&gt;&lt;span style=&quot;color: rgba(0, 0, 0, 0); font-family: monospace; font-size: 0px; text-align: start; text-wrap: nowrap;&quot;&gt;%3CmxGraphModel%3E%3Croot%3E%3CmxCell%20id%3D%220%22%2F%3E%3CmxCell%20id%3D%221%22%20parent%3D%220%22%2F%3E%3CmxCell%20id%3D%222%22%20value%3D%2248x%208bit%20byte%22%20style%3D%22text%3Bhtml%3D1%3Balign%3Dcenter%3BverticalAlign%3Dmiddle%3BwhiteSpace%3Dwrap%3Brounded%3D0%3B%22%20vertex%3D%221%22%20parent%3D%221%22%3E%3CmxGeometry%20y%3D%22255%22%20width%3D%22110%22%20height%3D%2230%22%20as%3D%22geometry%22%2F%3E%3C%2FmxCell%3E%3C%2Froot%3E%3C%2FmxGraphModel%3E&lt;/span&gt;" style="text;html=1;align=center;verticalAlign=middle;whiteSpace=wrap;rounded=0;" vertex="1" parent="1">
          <mxGeometry x="580" y="140" width="100" height="30" as="geometry" />
        </mxCell>
        <mxCell id="b3PtVijSFrBXYt2F4P9U-90" value="12x 32b&lt;span style=&quot;color: rgba(0, 0, 0, 0); font-family: monospace; font-size: 0px; text-align: start; text-wrap: nowrap;&quot;&gt;%3CmxGraphModel%3E%3Croot%3E%3CmxCell%20id%3D%220%22%2F%3E%3CmxCell%20id%3D%221%22%20parent%3D%220%22%2F%3E%3CmxCell%20id%3D%222%22%20value%3D%2212x%2032bit%20float%26lt%3Bspan%20style%3D%26quot%3Bcolor%3A%20rgba(0%2C%200%2C%200%2C%200)%3B%20font-family%3A%20monospace%3B%20font-size%3A%200px%3B%20text-align%3A%20start%3B%20text-wrap%3A%20nowrap%3B%26quot%3B%26gt%3B%253CmxGraphModel%253E%253Croot%253E%253CmxCell%2520id%253D%25220%2522%252F%253E%253CmxCell%2520id%253D%25221%2522%2520parent%253D%25220%2522%252F%253E%253CmxCell%2520id%253D%25222%2522%2520value%253D%252248x%25208bit%2520byte%2522%2520style%253D%2522text%253Bhtml%253D1%253Balign%253Dcenter%253BverticalAlign%253Dmiddle%253BwhiteSpace%253Dwrap%253Brounded%253D0%253B%2522%2520vertex%253D%25221%2522%2520parent%253D%25221%2522%253E%253CmxGeometry%2520y%253D%2522255%2522%2520width%253D%2522110%2522%2520height%253D%252230%2522%2520as%253D%2522geometry%2522%252F%253E%253C%252FmxCell%253E%253C%252Froot%253E%253C%252FmxGraphModel%253E%26lt%3B%2Fspan%26gt%3B%22%20style%3D%22text%3Bhtml%3D1%3Balign%3Dcenter%3BverticalAlign%3Dmiddle%3BwhiteSpace%3Dwrap%3Brounded%3D0%3B%22%20vertex%3D%221%22%20parent%3D%221%22%3E%3CmxGeometry%20y%3D%22295%22%20width%3D%22110%22%20height%3D%2230%22%20as%3D%22geometry%22%2F%3E%3C%2FmxCell%3E%3C%2Froot%3E%3C%2FmxGraphModel%3E&lt;/span&gt;it integer&lt;span style=&quot;color: rgba(0, 0, 0, 0); font-family: monospace; font-size: 0px; text-align: start; text-wrap: nowrap;&quot;&gt;%3CmxGraphModel%3E%3Croot%3E%3CmxCell%20id%3D%220%22%2F%3E%3CmxCell%20id%3D%221%22%20parent%3D%220%22%2F%3E%3CmxCell%20id%3D%222%22%20value%3D%2212x%2032bit%20float%26lt%3Bspan%20style%3D%26quot%3Bcolor%3A%20rgba(0%2C%200%2C%200%2C%200)%3B%20font-family%3A%20monospace%3B%20font-size%3A%200px%3B%20text-align%3A%20start%3B%20text-wrap%3A%20nowrap%3B%26quot%3B%26gt%3B%253CmxGraphModel%253E%253Croot%253E%253CmxCell%2520id%253D%25220%2522%252F%253E%253CmxCell%2520id%253D%25221%2522%2520parent%253D%25220%2522%252F%253E%253CmxCell%2520id%253D%25222%2522%2520value%253D%252248x%25208bit%2520byte%2522%2520style%253D%2522text%253Bhtml%253D1%253Balign%253Dcenter%253BverticalAlign%253Dmiddle%253BwhiteSpace%253Dwrap%253Brounded%253D0%253B%2522%2520vertex%253D%25221%2522%2520parent%253D%25221%2522%253E%253CmxGeometry%2520y%253D%2522255%2522%2520width%253D%2522110%2522%2520height%253D%252230%2522%2520as%253D%2522geometry%2522%252F%253E%253C%252FmxCell%253E%253C%252Froot%253E%253C%252FmxGraphModel%253E%26lt%3B%2Fspan%26gt%3B%22%20style%3D%22text%3Bhtml%3D1%3Balign%3Dcenter%3BverticalAlign%3Dmiddle%3BwhiteSpace%3Dwrap%3Brounded%3D0%3B%22%20vertex%3D%221%22%20parent%3D%221%22%3E%3CmxGeometry%20y%3D%22295%22%20width%3D%22110%22%20height%3D%2230%22%20as%3D%22geometry%22%2F%3E%3C%2FmxCell%3E%3C%2Froot%3E%3C%2FmxGraphModel%3E&lt;/span&gt;&lt;span style=&quot;color: rgba(0, 0, 0, 0); font-family: monospace; font-size: 0px; text-align: start; text-wrap: nowrap;&quot;&gt;%3CmxGraphModel%3E%3Croot%3E%3CmxCell%20id%3D%220%22%2F%3E%3CmxCell%20id%3D%221%22%20parent%3D%220%22%2F%3E%3CmxCell%20id%3D%222%22%20value%3D%2248x%208bit%20byte%22%20style%3D%22text%3Bhtml%3D1%3Balign%3Dcenter%3BverticalAlign%3Dmiddle%3BwhiteSpace%3Dwrap%3Brounded%3D0%3B%22%20vertex%3D%221%22%20parent%3D%221%22%3E%3CmxGeometry%20y%3D%22255%22%20width%3D%22110%22%20height%3D%2230%22%20as%3D%22geometry%22%2F%3E%3C%2FmxCell%3E%3C%2Froot%3E%3C%2FmxGraphModel%3&lt;/span&gt;" style="text;html=1;align=center;verticalAlign=middle;whiteSpace=wrap;rounded=0;" vertex="1" parent="1">
          <mxGeometry x="580" y="180" width="100" height="30" as="geometry" />
        </mxCell>
        <mxCell id="b3PtVijSFrBXYt2F4P9U-91" value="6x 64b&lt;span style=&quot;color: rgba(0, 0, 0, 0); font-family: monospace; font-size: 0px; text-align: start; text-wrap: nowrap;&quot;&gt;%3CmxGraphModel%3E%3Croot%3E%3CmxCell%20id%3D%220%22%2F%3E%3CmxCell%20id%3D%221%22%20parent%3D%220%22%2F%3E%3CmxCell%20id%3D%222%22%20value%3D%2212x%2032bit%20float%26lt%3Bspan%20style%3D%26quot%3Bcolor%3A%20rgba(0%2C%200%2C%200%2C%200)%3B%20font-family%3A%20monospace%3B%20font-size%3A%200px%3B%20text-align%3A%20start%3B%20text-wrap%3A%20nowrap%3B%26quot%3B%26gt%3B%253CmxGraphModel%253E%253Croot%253E%253CmxCell%2520id%253D%25220%2522%252F%253E%253CmxCell%2520id%253D%25221%2522%2520parent%253D%25220%2522%252F%253E%253CmxCell%2520id%253D%25222%2522%2520value%253D%252248x%25208bit%2520byte%2522%2520style%253D%2522text%253Bhtml%253D1%253Balign%253Dcenter%253BverticalAlign%253Dmiddle%253BwhiteSpace%253Dwrap%253Brounded%253D0%253B%2522%2520vertex%253D%25221%2522%2520parent%253D%25221%2522%253E%253CmxGeometry%2520y%253D%2522255%2522%2520width%253D%2522110%2522%2520height%253D%252230%2522%2520as%253D%2522geometry%2522%252F%253E%253C%252FmxCell%253E%253C%252Froot%253E%253C%252FmxGraphModel%253E%26lt%3B%2Fspan%26gt%3B%22%20style%3D%22text%3Bhtml%3D1%3Balign%3Dcenter%3BverticalAlign%3Dmiddle%3BwhiteSpace%3Dwrap%3Brounded%3D0%3B%22%20vertex%3D%221%22%20parent%3D%221%22%3E%3CmxGeometry%20y%3D%22295%22%20width%3D%22110%22%20height%3D%2230%22%20as%3D%22geometry%22%2F%3E%3C%2FmxCell%3E%3C%2Froot%3E%3C%2FmxGraphModel%3E&lt;/span&gt;it long&lt;span style=&quot;color: rgba(0, 0, 0, 0); font-family: monospace; font-size: 0px; text-align: start; text-wrap: nowrap;&quot;&gt;%3CmxGraphModel%3E%3Croot%3E%3CmxCell%20id%3D%220%22%2F%3E%3CmxCell%20id%3D%221%22%20parent%3D%220%22%2F%3E%3CmxCell%20id%3D%222%22%20value%3D%2212x%2032bit%20float%26lt%3Bspan%20style%3D%26quot%3Bcolor%3A%20rgba(0%2C%200%2C%200%2C%200)%3B%20font-family%3A%20monospace%3B%20font-size%3A%200px%3B%20text-align%3A%20start%3B%20text-wrap%3A%20nowrap%3B%26quot%3B%26gt%3B%253CmxGraphModel%253E%253Croot%253E%253CmxCell%2520id%253D%25220%2522%252F%253E%253CmxCell%2520id%253D%25221%2522%2520parent%253D%25220%2522%252F%253E%253CmxCell%2520id%253D%25222%2522%2520value%253D%252248x%25208bit%2520byte%2522%2520style%253D%2522text%253Bhtml%253D1%253Balign%253Dcenter%253BverticalAlign%253Dmiddle%253BwhiteSpace%253Dwrap%253Brounded%253D0%253B%2522%2520vertex%253D%25221%2522%2520parent%253D%25221%2522%253E%253CmxGeometry%2520y%253D%2522255%2522%2520width%253D%2522110%2522%2520height%253D%252230%2522%2520as%253D%2522geometry%2522%252F%253E%253C%252FmxCell%253E%253C%252Froot%253E%253C%252FmxGraphModel%253E%26lt%3B%2Fspan%26gt%3B%22%20style%3D%22text%3Bhtml%3D1%3Balign%3Dcenter%3BverticalAlign%3Dmiddle%3BwhiteSpace%3Dwrap%3Brounded%3D0%3B%22%20vertex%3D%221%22%20parent%3D%221%22%3E%3CmxGeometry%20y%3D%22295%22%20width%3D%22110%22%20height%3D%2230%22%20as%3D%22geometry%22%2F%3E%3C%2FmxCell%3E%3C%2Froot%3E%3C%2FmxGraphModel%3E&lt;/span&gt;&lt;span style=&quot;color: rgba(0, 0, 0, 0); font-family: monospace; font-size: 0px; text-align: start; text-wrap: nowrap;&quot;&gt;%3CmxGraphModel%3E%3Croot%3E%3CmxCell%20id%3D%220%22%2F%3E%3CmxCell%20id%3D%221%22%20parent%3D%220%22%2F%3E%3CmxCell%20id%3D%222%22%20value%3D%2248x%208bit%20byte%22%20style%3D%22text%3Bhtml%3D1%3Balign%3Dcenter%3BverticalAlign%3Dmiddle%3BwhiteSpace%3Dwrap%3Brounded%3D0%3B%22%20vertex%3D%221%22%20parent%3D%221%22%3E%3CmxGeometry%20y%3D%22255%22%20width%3D%22110%22%20height%3D%2230%22%20as%3D%22geometry%22%2F%3E%3C%2FmxCell%3E%3C%2Froot%3E%3C%2FmxGraphModel%3&lt;/span&gt;" style="text;html=1;align=center;verticalAlign=middle;whiteSpace=wrap;rounded=0;" vertex="1" parent="1">
          <mxGeometry x="580" y="220" width="100" height="30" as="geometry" />
        </mxCell>
        <mxCell id="b3PtVijSFrBXYt2F4P9U-98" value="__m512i" style="text;html=1;align=center;verticalAlign=middle;whiteSpace=wrap;rounded=0;" vertex="1" parent="1">
          <mxGeometry y="60" width="100" height="30" as="geometry" />
        </mxCell>
        <mxCell id="b3PtVijSFrBXYt2F4P9U-99" value="__m512i" style="text;html=1;align=center;verticalAlign=middle;whiteSpace=wrap;rounded=0;" vertex="1" parent="1">
          <mxGeometry y="180" width="100" height="30" as="geometry" />
        </mxCell>
        <mxCell id="b3PtVijSFrBXYt2F4P9U-100" value="__m512i" style="text;html=1;align=center;verticalAlign=middle;whiteSpace=wrap;rounded=0;" vertex="1" parent="1">
          <mxGeometry y="220" width="100" height="30" as="geometry" />
        </mxCell>
        <mxCell id="b3PtVijSFrBXYt2F4P9U-101" value="__m512d&lt;span style=&quot;color: rgba(0, 0, 0, 0); font-family: monospace; font-size: 0px; text-align: start; text-wrap: nowrap;&quot;&gt;%3CmxGraphModel%3E%3Croot%3E%3CmxCell%20id%3D%220%22%2F%3E%3CmxCell%20id%3D%221%22%20parent%3D%220%22%2F%3E%3CmxCell%20id%3D%222%22%20value%3D%22__m512i%22%20style%3D%22text%3Bhtml%3D1%3Balign%3Dcenter%3BverticalAlign%3Dmiddle%3BwhiteSpace%3Dwrap%3Brounded%3D0%3B%22%20vertex%3D%221%22%20parent%3D%221%22%3E%3CmxGeometry%20x%3D%2210%22%20y%3D%22415%22%20width%3D%22100%22%20height%3D%2230%22%20as%3D%22geometry%22%2F%3E%3C%2FmxCell%3E%3C%2Froot%3E%3C%2FmxGraphModel%3E&lt;/span&gt;" style="text;html=1;align=center;verticalAlign=middle;whiteSpace=wrap;rounded=0;" vertex="1" parent="1">
          <mxGeometry y="140" width="100" height="30" as="geometry" />
        </mxCell>
        <mxCell id="b3PtVijSFrBXYt2F4P9U-102" value="__m512&lt;span style=&quot;color: rgba(0, 0, 0, 0); font-family: monospace; font-size: 0px; text-align: start; text-wrap: nowrap;&quot;&gt;%3CmxGraphModel%3E%3Croot%3E%3CmxCell%20id%3D%220%22%2F%3E%3CmxCell%20id%3D%221%22%20parent%3D%220%22%2F%3E%3CmxCell%20id%3D%222%22%20value%3D%22__m512i%22%20style%3D%22text%3Bhtml%3D1%3Balign%3Dcenter%3BverticalAlign%3Dmiddle%3BwhiteSpace%3Dwrap%3Brounded%3D0%3B%22%20vertex%3D%221%22%20parent%3D%221%22%3E%3CmxGeometry%20x%3D%2210%22%20y%3D%22415%22%20width%3D%22100%22%20height%3D%2230%22%20as%3D%22geometry%22%2F%3E%3C%2FmxCell%3E%3C%2Froot%3E%3C%2FmxGraphModel%3E&lt;/span&gt;" style="text;html=1;align=center;verticalAlign=middle;whiteSpace=wrap;rounded=0;" vertex="1" parent="1">
          <mxGeometry y="100" width="100" height="30" as="geometry" />
        </mxCell>
        <mxCell id="b3PtVijSFrBXYt2F4P9U-104" value="&lt;font style=&quot;font-size: 8px;&quot;&gt;Double&lt;/font&gt;" style="text;html=1;align=center;verticalAlign=middle;whiteSpace=wrap;rounded=0;" vertex="1" parent="1">
          <mxGeometry x="100" y="145" width="80" height="20" as="geometry" />
        </mxCell>
        <mxCell id="b3PtVijSFrBXYt2F4P9U-105" value="&lt;font style=&quot;font-size: 8px;&quot;&gt;Double&lt;/font&gt;" style="text;html=1;align=center;verticalAlign=middle;whiteSpace=wrap;rounded=0;" vertex="1" parent="1">
          <mxGeometry x="180" y="145" width="80" height="20" as="geometry" />
        </mxCell>
        <mxCell id="b3PtVijSFrBXYt2F4P9U-106" value="&lt;font style=&quot;font-size: 8px;&quot;&gt;Double&lt;/font&gt;" style="text;html=1;align=center;verticalAlign=middle;whiteSpace=wrap;rounded=0;" vertex="1" parent="1">
          <mxGeometry x="260" y="145" width="80" height="20" as="geometry" />
        </mxCell>
        <mxCell id="b3PtVijSFrBXYt2F4P9U-107" value="&lt;font style=&quot;font-size: 8px;&quot;&gt;Double&lt;/font&gt;" style="text;html=1;align=center;verticalAlign=middle;whiteSpace=wrap;rounded=0;" vertex="1" parent="1">
          <mxGeometry x="340" y="145" width="80" height="20" as="geometry" />
        </mxCell>
        <mxCell id="b3PtVijSFrBXYt2F4P9U-108" value="&lt;font style=&quot;font-size: 8px;&quot;&gt;Double&lt;/font&gt;" style="text;html=1;align=center;verticalAlign=middle;whiteSpace=wrap;rounded=0;" vertex="1" parent="1">
          <mxGeometry x="420" y="145" width="80" height="20" as="geometry" />
        </mxCell>
        <mxCell id="b3PtVijSFrBXYt2F4P9U-109" value="&lt;font style=&quot;font-size: 8px;&quot;&gt;Double&lt;/font&gt;" style="text;html=1;align=center;verticalAlign=middle;whiteSpace=wrap;rounded=0;" vertex="1" parent="1">
          <mxGeometry x="500" y="145" width="80" height="20" as="geometry" />
        </mxCell>
        <mxCell id="b3PtVijSFrBXYt2F4P9U-110" value="&lt;font style=&quot;font-size: 8px;&quot;&gt;Float&lt;/font&gt;" style="text;html=1;align=center;verticalAlign=middle;whiteSpace=wrap;rounded=0;" vertex="1" parent="1">
          <mxGeometry x="100" y="105" width="40" height="20" as="geometry" />
        </mxCell>
        <mxCell id="b3PtVijSFrBXYt2F4P9U-111" value="&lt;font style=&quot;font-size: 8px;&quot;&gt;Float&lt;/font&gt;" style="text;html=1;align=center;verticalAlign=middle;whiteSpace=wrap;rounded=0;" vertex="1" parent="1">
          <mxGeometry x="140" y="105" width="40" height="20" as="geometry" />
        </mxCell>
        <mxCell id="b3PtVijSFrBXYt2F4P9U-112" value="&lt;font style=&quot;font-size: 8px;&quot;&gt;Float&lt;/font&gt;" style="text;html=1;align=center;verticalAlign=middle;whiteSpace=wrap;rounded=0;" vertex="1" parent="1">
          <mxGeometry x="180" y="105" width="40" height="20" as="geometry" />
        </mxCell>
        <mxCell id="b3PtVijSFrBXYt2F4P9U-113" value="&lt;font style=&quot;font-size: 8px;&quot;&gt;Float&lt;/font&gt;" style="text;html=1;align=center;verticalAlign=middle;whiteSpace=wrap;rounded=0;" vertex="1" parent="1">
          <mxGeometry x="220" y="105" width="40" height="20" as="geometry" />
        </mxCell>
        <mxCell id="b3PtVijSFrBXYt2F4P9U-114" value="&lt;font style=&quot;font-size: 8px;&quot;&gt;Float&lt;/font&gt;" style="text;html=1;align=center;verticalAlign=middle;whiteSpace=wrap;rounded=0;" vertex="1" parent="1">
          <mxGeometry x="260" y="105" width="40" height="20" as="geometry" />
        </mxCell>
        <mxCell id="b3PtVijSFrBXYt2F4P9U-115" value="&lt;font style=&quot;font-size: 8px;&quot;&gt;Float&lt;/font&gt;" style="text;html=1;align=center;verticalAlign=middle;whiteSpace=wrap;rounded=0;" vertex="1" parent="1">
          <mxGeometry x="300" y="105" width="40" height="20" as="geometry" />
        </mxCell>
        <mxCell id="b3PtVijSFrBXYt2F4P9U-116" value="&lt;font style=&quot;font-size: 8px;&quot;&gt;Float&lt;/font&gt;" style="text;html=1;align=center;verticalAlign=middle;whiteSpace=wrap;rounded=0;" vertex="1" parent="1">
          <mxGeometry x="340" y="105" width="40" height="20" as="geometry" />
        </mxCell>
        <mxCell id="b3PtVijSFrBXYt2F4P9U-117" value="&lt;font style=&quot;font-size: 8px;&quot;&gt;Float&lt;/font&gt;" style="text;html=1;align=center;verticalAlign=middle;whiteSpace=wrap;rounded=0;" vertex="1" parent="1">
          <mxGeometry x="380" y="105" width="40" height="20" as="geometry" />
        </mxCell>
        <mxCell id="b3PtVijSFrBXYt2F4P9U-118" value="&lt;font style=&quot;font-size: 8px;&quot;&gt;Float&lt;/font&gt;" style="text;html=1;align=center;verticalAlign=middle;whiteSpace=wrap;rounded=0;" vertex="1" parent="1">
          <mxGeometry x="420" y="105" width="40" height="20" as="geometry" />
        </mxCell>
        <mxCell id="b3PtVijSFrBXYt2F4P9U-119" value="&lt;font style=&quot;font-size: 8px;&quot;&gt;Float&lt;/font&gt;" style="text;html=1;align=center;verticalAlign=middle;whiteSpace=wrap;rounded=0;" vertex="1" parent="1">
          <mxGeometry x="460" y="105" width="40" height="20" as="geometry" />
        </mxCell>
        <mxCell id="b3PtVijSFrBXYt2F4P9U-120" value="&lt;font style=&quot;font-size: 8px;&quot;&gt;Float&lt;/font&gt;" style="text;html=1;align=center;verticalAlign=middle;whiteSpace=wrap;rounded=0;" vertex="1" parent="1">
          <mxGeometry x="500" y="105" width="40" height="20" as="geometry" />
        </mxCell>
        <mxCell id="b3PtVijSFrBXYt2F4P9U-121" value="&lt;font style=&quot;font-size: 8px;&quot;&gt;Float&lt;/font&gt;" style="text;html=1;align=center;verticalAlign=middle;whiteSpace=wrap;rounded=0;" vertex="1" parent="1">
          <mxGeometry x="540" y="105" width="40" height="20" as="geometry" />
        </mxCell>
        <mxCell id="b3PtVijSFrBXYt2F4P9U-122" value="&lt;font style=&quot;font-size: 8px;&quot;&gt;B&lt;/font&gt;" style="text;html=1;align=center;verticalAlign=middle;whiteSpace=wrap;rounded=0;" vertex="1" parent="1">
          <mxGeometry x="570" y="65" width="10" height="20" as="geometry" />
        </mxCell>
        <mxCell id="b3PtVijSFrBXYt2F4P9U-123" value="&lt;font style=&quot;font-size: 8px;&quot;&gt;B&lt;/font&gt;" style="text;html=1;align=center;verticalAlign=middle;whiteSpace=wrap;rounded=0;" vertex="1" parent="1">
          <mxGeometry x="560" y="65" width="10" height="20" as="geometry" />
        </mxCell>
        <mxCell id="b3PtVijSFrBXYt2F4P9U-124" value="&lt;font style=&quot;font-size: 8px;&quot;&gt;B&lt;/font&gt;" style="text;html=1;align=center;verticalAlign=middle;whiteSpace=wrap;rounded=0;" vertex="1" parent="1">
          <mxGeometry x="550" y="65" width="10" height="20" as="geometry" />
        </mxCell>
        <mxCell id="b3PtVijSFrBXYt2F4P9U-125" value="&lt;font style=&quot;font-size: 8px;&quot;&gt;B&lt;/font&gt;" style="text;html=1;align=center;verticalAlign=middle;whiteSpace=wrap;rounded=0;" vertex="1" parent="1">
          <mxGeometry x="540" y="65" width="10" height="20" as="geometry" />
        </mxCell>
        <mxCell id="b3PtVijSFrBXYt2F4P9U-126" value="&lt;font style=&quot;font-size: 8px;&quot;&gt;B&lt;/font&gt;" style="text;html=1;align=center;verticalAlign=middle;whiteSpace=wrap;rounded=0;" vertex="1" parent="1">
          <mxGeometry x="530" y="65" width="10" height="20" as="geometry" />
        </mxCell>
        <mxCell id="b3PtVijSFrBXYt2F4P9U-127" value="&lt;font style=&quot;font-size: 8px;&quot;&gt;B&lt;/font&gt;" style="text;html=1;align=center;verticalAlign=middle;whiteSpace=wrap;rounded=0;" vertex="1" parent="1">
          <mxGeometry x="520" y="65" width="10" height="20" as="geometry" />
        </mxCell>
        <mxCell id="b3PtVijSFrBXYt2F4P9U-128" value="&lt;font style=&quot;font-size: 8px;&quot;&gt;B&lt;/font&gt;" style="text;html=1;align=center;verticalAlign=middle;whiteSpace=wrap;rounded=0;" vertex="1" parent="1">
          <mxGeometry x="510" y="65" width="10" height="20" as="geometry" />
        </mxCell>
        <mxCell id="b3PtVijSFrBXYt2F4P9U-129" value="&lt;font style=&quot;font-size: 8px;&quot;&gt;B&lt;/font&gt;" style="text;html=1;align=center;verticalAlign=middle;whiteSpace=wrap;rounded=0;" vertex="1" parent="1">
          <mxGeometry x="500" y="65" width="10" height="20" as="geometry" />
        </mxCell>
        <mxCell id="b3PtVijSFrBXYt2F4P9U-130" value="&lt;font style=&quot;font-size: 8px;&quot;&gt;B&lt;/font&gt;" style="text;html=1;align=center;verticalAlign=middle;whiteSpace=wrap;rounded=0;" vertex="1" parent="1">
          <mxGeometry x="490" y="65" width="10" height="20" as="geometry" />
        </mxCell>
        <mxCell id="b3PtVijSFrBXYt2F4P9U-131" value="&lt;font style=&quot;font-size: 8px;&quot;&gt;B&lt;/font&gt;" style="text;html=1;align=center;verticalAlign=middle;whiteSpace=wrap;rounded=0;" vertex="1" parent="1">
          <mxGeometry x="480" y="65" width="10" height="20" as="geometry" />
        </mxCell>
        <mxCell id="b3PtVijSFrBXYt2F4P9U-132" value="&lt;font style=&quot;font-size: 8px;&quot;&gt;B&lt;/font&gt;" style="text;html=1;align=center;verticalAlign=middle;whiteSpace=wrap;rounded=0;" vertex="1" parent="1">
          <mxGeometry x="470" y="65" width="10" height="20" as="geometry" />
        </mxCell>
        <mxCell id="b3PtVijSFrBXYt2F4P9U-133" value="&lt;font style=&quot;font-size: 8px;&quot;&gt;B&lt;/font&gt;" style="text;html=1;align=center;verticalAlign=middle;whiteSpace=wrap;rounded=0;" vertex="1" parent="1">
          <mxGeometry x="460" y="65" width="10" height="20" as="geometry" />
        </mxCell>
        <mxCell id="b3PtVijSFrBXYt2F4P9U-134" value="&lt;font style=&quot;font-size: 8px;&quot;&gt;B&lt;/font&gt;" style="text;html=1;align=center;verticalAlign=middle;whiteSpace=wrap;rounded=0;" vertex="1" parent="1">
          <mxGeometry x="450" y="65" width="10" height="20" as="geometry" />
        </mxCell>
        <mxCell id="b3PtVijSFrBXYt2F4P9U-135" value="&lt;font style=&quot;font-size: 8px;&quot;&gt;B&lt;/font&gt;" style="text;html=1;align=center;verticalAlign=middle;whiteSpace=wrap;rounded=0;" vertex="1" parent="1">
          <mxGeometry x="440" y="65" width="10" height="20" as="geometry" />
        </mxCell>
        <mxCell id="b3PtVijSFrBXYt2F4P9U-136" value="&lt;font style=&quot;font-size: 8px;&quot;&gt;B&lt;/font&gt;" style="text;html=1;align=center;verticalAlign=middle;whiteSpace=wrap;rounded=0;" vertex="1" parent="1">
          <mxGeometry x="430" y="65" width="10" height="20" as="geometry" />
        </mxCell>
        <mxCell id="b3PtVijSFrBXYt2F4P9U-137" value="&lt;font style=&quot;font-size: 8px;&quot;&gt;B&lt;/font&gt;" style="text;html=1;align=center;verticalAlign=middle;whiteSpace=wrap;rounded=0;" vertex="1" parent="1">
          <mxGeometry x="420" y="65" width="10" height="20" as="geometry" />
        </mxCell>
        <mxCell id="b3PtVijSFrBXYt2F4P9U-138" value="&lt;font style=&quot;font-size: 8px;&quot;&gt;B&lt;/font&gt;" style="text;html=1;align=center;verticalAlign=middle;whiteSpace=wrap;rounded=0;" vertex="1" parent="1">
          <mxGeometry x="410" y="65" width="10" height="20" as="geometry" />
        </mxCell>
        <mxCell id="b3PtVijSFrBXYt2F4P9U-139" value="&lt;font style=&quot;font-size: 8px;&quot;&gt;B&lt;/font&gt;" style="text;html=1;align=center;verticalAlign=middle;whiteSpace=wrap;rounded=0;" vertex="1" parent="1">
          <mxGeometry x="400" y="65" width="10" height="20" as="geometry" />
        </mxCell>
        <mxCell id="b3PtVijSFrBXYt2F4P9U-140" value="&lt;font style=&quot;font-size: 8px;&quot;&gt;B&lt;/font&gt;" style="text;html=1;align=center;verticalAlign=middle;whiteSpace=wrap;rounded=0;" vertex="1" parent="1">
          <mxGeometry x="390" y="65" width="10" height="20" as="geometry" />
        </mxCell>
        <mxCell id="b3PtVijSFrBXYt2F4P9U-141" value="&lt;font style=&quot;font-size: 8px;&quot;&gt;B&lt;/font&gt;" style="text;html=1;align=center;verticalAlign=middle;whiteSpace=wrap;rounded=0;" vertex="1" parent="1">
          <mxGeometry x="380" y="65" width="10" height="20" as="geometry" />
        </mxCell>
        <mxCell id="b3PtVijSFrBXYt2F4P9U-142" value="&lt;font style=&quot;font-size: 8px;&quot;&gt;B&lt;/font&gt;" style="text;html=1;align=center;verticalAlign=middle;whiteSpace=wrap;rounded=0;" vertex="1" parent="1">
          <mxGeometry x="370" y="65" width="10" height="20" as="geometry" />
        </mxCell>
        <mxCell id="b3PtVijSFrBXYt2F4P9U-143" value="&lt;font style=&quot;font-size: 8px;&quot;&gt;B&lt;/font&gt;" style="text;html=1;align=center;verticalAlign=middle;whiteSpace=wrap;rounded=0;" vertex="1" parent="1">
          <mxGeometry x="360" y="65" width="10" height="20" as="geometry" />
        </mxCell>
        <mxCell id="b3PtVijSFrBXYt2F4P9U-144" value="&lt;font style=&quot;font-size: 8px;&quot;&gt;B&lt;/font&gt;" style="text;html=1;align=center;verticalAlign=middle;whiteSpace=wrap;rounded=0;" vertex="1" parent="1">
          <mxGeometry x="350" y="65" width="10" height="20" as="geometry" />
        </mxCell>
        <mxCell id="b3PtVijSFrBXYt2F4P9U-145" value="&lt;font style=&quot;font-size: 8px;&quot;&gt;B&lt;/font&gt;" style="text;html=1;align=center;verticalAlign=middle;whiteSpace=wrap;rounded=0;" vertex="1" parent="1">
          <mxGeometry x="340" y="65" width="10" height="20" as="geometry" />
        </mxCell>
        <mxCell id="b3PtVijSFrBXYt2F4P9U-146" value="&lt;font style=&quot;font-size: 8px;&quot;&gt;B&lt;/font&gt;" style="text;html=1;align=center;verticalAlign=middle;whiteSpace=wrap;rounded=0;" vertex="1" parent="1">
          <mxGeometry x="330" y="65" width="10" height="20" as="geometry" />
        </mxCell>
        <mxCell id="b3PtVijSFrBXYt2F4P9U-147" value="&lt;font style=&quot;font-size: 8px;&quot;&gt;B&lt;/font&gt;" style="text;html=1;align=center;verticalAlign=middle;whiteSpace=wrap;rounded=0;" vertex="1" parent="1">
          <mxGeometry x="320" y="65" width="10" height="20" as="geometry" />
        </mxCell>
        <mxCell id="b3PtVijSFrBXYt2F4P9U-149" value="&lt;font style=&quot;font-size: 8px;&quot;&gt;B&lt;/font&gt;" style="text;html=1;align=center;verticalAlign=middle;whiteSpace=wrap;rounded=0;" vertex="1" parent="1">
          <mxGeometry x="310" y="65" width="10" height="20" as="geometry" />
        </mxCell>
        <mxCell id="b3PtVijSFrBXYt2F4P9U-150" value="&lt;font style=&quot;font-size: 8px;&quot;&gt;B&lt;/font&gt;" style="text;html=1;align=center;verticalAlign=middle;whiteSpace=wrap;rounded=0;" vertex="1" parent="1">
          <mxGeometry x="300" y="65" width="10" height="20" as="geometry" />
        </mxCell>
        <mxCell id="b3PtVijSFrBXYt2F4P9U-151" value="&lt;font style=&quot;font-size: 8px;&quot;&gt;B&lt;/font&gt;" style="text;html=1;align=center;verticalAlign=middle;whiteSpace=wrap;rounded=0;" vertex="1" parent="1">
          <mxGeometry x="290" y="65" width="10" height="20" as="geometry" />
        </mxCell>
        <mxCell id="b3PtVijSFrBXYt2F4P9U-152" value="&lt;font style=&quot;font-size: 8px;&quot;&gt;B&lt;/font&gt;" style="text;html=1;align=center;verticalAlign=middle;whiteSpace=wrap;rounded=0;" vertex="1" parent="1">
          <mxGeometry x="280" y="65" width="10" height="20" as="geometry" />
        </mxCell>
        <mxCell id="b3PtVijSFrBXYt2F4P9U-153" value="&lt;font style=&quot;font-size: 8px;&quot;&gt;B&lt;/font&gt;" style="text;html=1;align=center;verticalAlign=middle;whiteSpace=wrap;rounded=0;" vertex="1" parent="1">
          <mxGeometry x="270" y="65" width="10" height="20" as="geometry" />
        </mxCell>
        <mxCell id="b3PtVijSFrBXYt2F4P9U-154" value="&lt;font style=&quot;font-size: 8px;&quot;&gt;B&lt;/font&gt;" style="text;html=1;align=center;verticalAlign=middle;whiteSpace=wrap;rounded=0;" vertex="1" parent="1">
          <mxGeometry x="260" y="65" width="10" height="20" as="geometry" />
        </mxCell>
        <mxCell id="b3PtVijSFrBXYt2F4P9U-155" value="&lt;font style=&quot;font-size: 8px;&quot;&gt;B&lt;/font&gt;" style="text;html=1;align=center;verticalAlign=middle;whiteSpace=wrap;rounded=0;" vertex="1" parent="1">
          <mxGeometry x="250" y="65" width="10" height="20" as="geometry" />
        </mxCell>
        <mxCell id="b3PtVijSFrBXYt2F4P9U-156" value="&lt;font style=&quot;font-size: 8px;&quot;&gt;B&lt;/font&gt;" style="text;html=1;align=center;verticalAlign=middle;whiteSpace=wrap;rounded=0;" vertex="1" parent="1">
          <mxGeometry x="240" y="65" width="10" height="20" as="geometry" />
        </mxCell>
        <mxCell id="b3PtVijSFrBXYt2F4P9U-157" value="&lt;font style=&quot;font-size: 8px;&quot;&gt;B&lt;/font&gt;" style="text;html=1;align=center;verticalAlign=middle;whiteSpace=wrap;rounded=0;" vertex="1" parent="1">
          <mxGeometry x="230" y="65" width="10" height="20" as="geometry" />
        </mxCell>
        <mxCell id="b3PtVijSFrBXYt2F4P9U-158" value="&lt;font style=&quot;font-size: 8px;&quot;&gt;B&lt;/font&gt;" style="text;html=1;align=center;verticalAlign=middle;whiteSpace=wrap;rounded=0;" vertex="1" parent="1">
          <mxGeometry x="220" y="65" width="10" height="20" as="geometry" />
        </mxCell>
        <mxCell id="b3PtVijSFrBXYt2F4P9U-159" value="&lt;font style=&quot;font-size: 8px;&quot;&gt;B&lt;/font&gt;" style="text;html=1;align=center;verticalAlign=middle;whiteSpace=wrap;rounded=0;" vertex="1" parent="1">
          <mxGeometry x="210" y="65" width="10" height="20" as="geometry" />
        </mxCell>
        <mxCell id="b3PtVijSFrBXYt2F4P9U-160" value="&lt;font style=&quot;font-size: 8px;&quot;&gt;B&lt;/font&gt;" style="text;html=1;align=center;verticalAlign=middle;whiteSpace=wrap;rounded=0;" vertex="1" parent="1">
          <mxGeometry x="200" y="65" width="10" height="20" as="geometry" />
        </mxCell>
        <mxCell id="b3PtVijSFrBXYt2F4P9U-161" value="&lt;font style=&quot;font-size: 8px;&quot;&gt;B&lt;/font&gt;" style="text;html=1;align=center;verticalAlign=middle;whiteSpace=wrap;rounded=0;" vertex="1" parent="1">
          <mxGeometry x="190" y="65" width="10" height="20" as="geometry" />
        </mxCell>
        <mxCell id="b3PtVijSFrBXYt2F4P9U-162" value="&lt;font style=&quot;font-size: 8px;&quot;&gt;B&lt;/font&gt;" style="text;html=1;align=center;verticalAlign=middle;whiteSpace=wrap;rounded=0;" vertex="1" parent="1">
          <mxGeometry x="180" y="65" width="10" height="20" as="geometry" />
        </mxCell>
        <mxCell id="b3PtVijSFrBXYt2F4P9U-163" value="&lt;font style=&quot;font-size: 8px;&quot;&gt;B&lt;/font&gt;" style="text;html=1;align=center;verticalAlign=middle;whiteSpace=wrap;rounded=0;" vertex="1" parent="1">
          <mxGeometry x="170" y="65" width="10" height="20" as="geometry" />
        </mxCell>
        <mxCell id="b3PtVijSFrBXYt2F4P9U-164" value="&lt;font style=&quot;font-size: 8px;&quot;&gt;B&lt;/font&gt;" style="text;html=1;align=center;verticalAlign=middle;whiteSpace=wrap;rounded=0;" vertex="1" parent="1">
          <mxGeometry x="160" y="65" width="10" height="20" as="geometry" />
        </mxCell>
        <mxCell id="b3PtVijSFrBXYt2F4P9U-165" value="&lt;font style=&quot;font-size: 8px;&quot;&gt;B&lt;/font&gt;" style="text;html=1;align=center;verticalAlign=middle;whiteSpace=wrap;rounded=0;" vertex="1" parent="1">
          <mxGeometry x="150" y="65" width="10" height="20" as="geometry" />
        </mxCell>
        <mxCell id="b3PtVijSFrBXYt2F4P9U-166" value="&lt;font style=&quot;font-size: 8px;&quot;&gt;B&lt;/font&gt;" style="text;html=1;align=center;verticalAlign=middle;whiteSpace=wrap;rounded=0;" vertex="1" parent="1">
          <mxGeometry x="140" y="65" width="10" height="20" as="geometry" />
        </mxCell>
        <mxCell id="b3PtVijSFrBXYt2F4P9U-167" value="&lt;font style=&quot;font-size: 8px;&quot;&gt;B&lt;/font&gt;" style="text;html=1;align=center;verticalAlign=middle;whiteSpace=wrap;rounded=0;" vertex="1" parent="1">
          <mxGeometry x="110" y="65" width="10" height="20" as="geometry" />
        </mxCell>
        <mxCell id="b3PtVijSFrBXYt2F4P9U-168" value="&lt;font style=&quot;font-size: 8px;&quot;&gt;B&lt;/font&gt;" style="text;html=1;align=center;verticalAlign=middle;whiteSpace=wrap;rounded=0;" vertex="1" parent="1">
          <mxGeometry x="130" y="65" width="10" height="20" as="geometry" />
        </mxCell>
        <mxCell id="b3PtVijSFrBXYt2F4P9U-169" value="&lt;font style=&quot;font-size: 8px;&quot;&gt;B&lt;/font&gt;" style="text;html=1;align=center;verticalAlign=middle;whiteSpace=wrap;rounded=0;" vertex="1" parent="1">
          <mxGeometry x="120" y="65" width="10" height="20" as="geometry" />
        </mxCell>
        <mxCell id="b3PtVijSFrBXYt2F4P9U-173" value="&lt;font style=&quot;font-size: 8px;&quot;&gt;B&lt;/font&gt;" style="text;html=1;align=center;verticalAlign=middle;whiteSpace=wrap;rounded=0;" vertex="1" parent="1">
          <mxGeometry x="100" y="65" width="10" height="20" as="geometry" />
        </mxCell>
        <mxCell id="b3PtVijSFrBXYt2F4P9U-174" value="&lt;font style=&quot;font-size: 8px;&quot;&gt;int&lt;/font&gt;" style="text;html=1;align=center;verticalAlign=middle;whiteSpace=wrap;rounded=0;" vertex="1" parent="1">
          <mxGeometry x="100" y="185" width="40" height="20" as="geometry" />
        </mxCell>
        <mxCell id="b3PtVijSFrBXYt2F4P9U-175" value="&lt;font style=&quot;font-size: 8px;&quot;&gt;int&lt;/font&gt;" style="text;html=1;align=center;verticalAlign=middle;whiteSpace=wrap;rounded=0;" vertex="1" parent="1">
          <mxGeometry x="140" y="185" width="40" height="20" as="geometry" />
        </mxCell>
        <mxCell id="b3PtVijSFrBXYt2F4P9U-176" value="&lt;font style=&quot;font-size: 8px;&quot;&gt;int&lt;/font&gt;" style="text;html=1;align=center;verticalAlign=middle;whiteSpace=wrap;rounded=0;" vertex="1" parent="1">
          <mxGeometry x="180" y="185" width="40" height="20" as="geometry" />
        </mxCell>
        <mxCell id="b3PtVijSFrBXYt2F4P9U-177" value="&lt;font style=&quot;font-size: 8px;&quot;&gt;int&lt;/font&gt;" style="text;html=1;align=center;verticalAlign=middle;whiteSpace=wrap;rounded=0;" vertex="1" parent="1">
          <mxGeometry x="220" y="185" width="40" height="20" as="geometry" />
        </mxCell>
        <mxCell id="b3PtVijSFrBXYt2F4P9U-178" value="&lt;font style=&quot;font-size: 8px;&quot;&gt;int&lt;/font&gt;" style="text;html=1;align=center;verticalAlign=middle;whiteSpace=wrap;rounded=0;" vertex="1" parent="1">
          <mxGeometry x="260" y="185" width="40" height="20" as="geometry" />
        </mxCell>
        <mxCell id="b3PtVijSFrBXYt2F4P9U-179" value="&lt;font style=&quot;font-size: 8px;&quot;&gt;int&lt;/font&gt;" style="text;html=1;align=center;verticalAlign=middle;whiteSpace=wrap;rounded=0;" vertex="1" parent="1">
          <mxGeometry x="300" y="185" width="40" height="20" as="geometry" />
        </mxCell>
        <mxCell id="b3PtVijSFrBXYt2F4P9U-180" value="&lt;font style=&quot;font-size: 8px;&quot;&gt;int&lt;/font&gt;" style="text;html=1;align=center;verticalAlign=middle;whiteSpace=wrap;rounded=0;" vertex="1" parent="1">
          <mxGeometry x="340" y="185" width="40" height="20" as="geometry" />
        </mxCell>
        <mxCell id="b3PtVijSFrBXYt2F4P9U-181" value="&lt;font style=&quot;font-size: 8px;&quot;&gt;int&lt;/font&gt;" style="text;html=1;align=center;verticalAlign=middle;whiteSpace=wrap;rounded=0;" vertex="1" parent="1">
          <mxGeometry x="380" y="185" width="40" height="20" as="geometry" />
        </mxCell>
        <mxCell id="b3PtVijSFrBXYt2F4P9U-182" value="&lt;font style=&quot;font-size: 8px;&quot;&gt;int&lt;/font&gt;" style="text;html=1;align=center;verticalAlign=middle;whiteSpace=wrap;rounded=0;" vertex="1" parent="1">
          <mxGeometry x="420" y="185" width="40" height="20" as="geometry" />
        </mxCell>
        <mxCell id="b3PtVijSFrBXYt2F4P9U-184" value="&lt;font style=&quot;font-size: 8px;&quot;&gt;int&lt;/font&gt;" style="text;html=1;align=center;verticalAlign=middle;whiteSpace=wrap;rounded=0;" vertex="1" parent="1">
          <mxGeometry x="460" y="185" width="40" height="20" as="geometry" />
        </mxCell>
        <mxCell id="b3PtVijSFrBXYt2F4P9U-185" value="&lt;font style=&quot;font-size: 8px;&quot;&gt;int&lt;/font&gt;" style="text;html=1;align=center;verticalAlign=middle;whiteSpace=wrap;rounded=0;" vertex="1" parent="1">
          <mxGeometry x="500" y="185" width="40" height="20" as="geometry" />
        </mxCell>
        <mxCell id="b3PtVijSFrBXYt2F4P9U-186" value="&lt;font style=&quot;font-size: 8px;&quot;&gt;int&lt;/font&gt;" style="text;html=1;align=center;verticalAlign=middle;whiteSpace=wrap;rounded=0;" vertex="1" parent="1">
          <mxGeometry x="540" y="185" width="40" height="20" as="geometry" />
        </mxCell>
        <mxCell id="b3PtVijSFrBXYt2F4P9U-187" value="&lt;font style=&quot;font-size: 8px;&quot;&gt;long long&lt;/font&gt;" style="text;html=1;align=center;verticalAlign=middle;whiteSpace=wrap;rounded=0;" vertex="1" parent="1">
          <mxGeometry x="500" y="225" width="80" height="20" as="geometry" />
        </mxCell>
        <mxCell id="b3PtVijSFrBXYt2F4P9U-188" value="&lt;font style=&quot;font-size: 8px;&quot;&gt;long long&lt;/font&gt;" style="text;html=1;align=center;verticalAlign=middle;whiteSpace=wrap;rounded=0;" vertex="1" parent="1">
          <mxGeometry x="420" y="225" width="80" height="20" as="geometry" />
        </mxCell>
        <mxCell id="b3PtVijSFrBXYt2F4P9U-189" value="&lt;font style=&quot;font-size: 8px;&quot;&gt;long long&lt;/font&gt;" style="text;html=1;align=center;verticalAlign=middle;whiteSpace=wrap;rounded=0;" vertex="1" parent="1">
          <mxGeometry x="340" y="225" width="80" height="20" as="geometry" />
        </mxCell>
        <mxCell id="b3PtVijSFrBXYt2F4P9U-190" value="&lt;font style=&quot;font-size: 8px;&quot;&gt;long long&lt;/font&gt;" style="text;html=1;align=center;verticalAlign=middle;whiteSpace=wrap;rounded=0;" vertex="1" parent="1">
          <mxGeometry x="260" y="225" width="80" height="20" as="geometry" />
        </mxCell>
        <mxCell id="b3PtVijSFrBXYt2F4P9U-191" value="&lt;font style=&quot;font-size: 8px;&quot;&gt;long long&lt;/font&gt;" style="text;html=1;align=center;verticalAlign=middle;whiteSpace=wrap;rounded=0;" vertex="1" parent="1">
          <mxGeometry x="180" y="225" width="80" height="20" as="geometry" />
        </mxCell>
        <mxCell id="b3PtVijSFrBXYt2F4P9U-192" value="&lt;font style=&quot;font-size: 8px;&quot;&gt;long long&lt;/font&gt;" style="text;html=1;align=center;verticalAlign=middle;whiteSpace=wrap;rounded=0;" vertex="1" parent="1">
          <mxGeometry x="100" y="225" width="80" height="20" as="geometry" />
        </mxCell>
        <mxCell id="b3PtVijSFrBXYt2F4P9U-193" value="&lt;font style=&quot;font-size: 8px;&quot;&gt;doublequadword&lt;/font&gt;" style="text;html=1;align=center;verticalAlign=middle;whiteSpace=wrap;rounded=0;" vertex="1" parent="1">
          <mxGeometry x="100" y="265" width="160" height="20" as="geometry" />
        </mxCell>
        <mxCell id="b3PtVijSFrBXYt2F4P9U-195" value="&lt;font style=&quot;font-size: 8px;&quot;&gt;doublequadword&lt;/font&gt;" style="text;html=1;align=center;verticalAlign=middle;whiteSpace=wrap;rounded=0;" vertex="1" parent="1">
          <mxGeometry x="260" y="265" width="160" height="20" as="geometry" />
        </mxCell>
        <mxCell id="b3PtVijSFrBXYt2F4P9U-197" value="" style="rounded=0;whiteSpace=wrap;html=1;fillColor=#fa6800;fontColor=#000000;strokeColor=#C73500;" vertex="1" parent="1">
          <mxGeometry x="420" y="265" width="160" height="20" as="geometry" />
        </mxCell>
        <mxCell id="b3PtVijSFrBXYt2F4P9U-198" value="&lt;font style=&quot;font-size: 8px;&quot;&gt;doublequadword&lt;/font&gt;" style="text;html=1;align=center;verticalAlign=middle;whiteSpace=wrap;rounded=0;" vertex="1" parent="1">
          <mxGeometry x="420" y="265" width="160" height="20" as="geometry" />
        </mxCell>
        <mxCell id="b3PtVijSFrBXYt2F4P9U-199" value="__m512i" style="text;html=1;align=center;verticalAlign=middle;whiteSpace=wrap;rounded=0;" vertex="1" parent="1">
          <mxGeometry y="260" width="100" height="30" as="geometry" />
        </mxCell>
        <mxCell id="b3PtVijSFrBXYt2F4P9U-200" value="3x 128b&lt;span style=&quot;color: rgba(0, 0, 0, 0); font-family: monospace; font-size: 0px; text-align: start; text-wrap: nowrap;&quot;&gt;%3CmxGraphModel%3E%3Croot%3E%3CmxCell%20id%3D%220%22%2F%3E%3CmxCell%20id%3D%221%22%20parent%3D%220%22%2F%3E%3CmxCell%20id%3D%222%22%20value%3D%2212x%2032bit%20float%26lt%3Bspan%20style%3D%26quot%3Bcolor%3A%20rgba(0%2C%200%2C%200%2C%200)%3B%20font-family%3A%20monospace%3B%20font-size%3A%200px%3B%20text-align%3A%20start%3B%20text-wrap%3A%20nowrap%3B%26quot%3B%26gt%3B%253CmxGraphModel%253E%253Croot%253E%253CmxCell%2520id%253D%25220%2522%252F%253E%253CmxCell%2520id%253D%25221%2522%2520parent%253D%25220%2522%252F%253E%253CmxCell%2520id%253D%25222%2522%2520value%253D%252248x%25208bit%2520byte%2522%2520style%253D%2522text%253Bhtml%253D1%253Balign%253Dcenter%253BverticalAlign%253Dmiddle%253BwhiteSpace%253Dwrap%253Brounded%253D0%253B%2522%2520vertex%253D%25221%2522%2520parent%253D%25221%2522%253E%253CmxGeometry%2520y%253D%2522255%2522%2520width%253D%2522110%2522%2520height%253D%252230%2522%2520as%253D%2522geometry%2522%252F%253E%253C%252FmxCell%253E%253C%252Froot%253E%253C%252FmxGraphModel%253E%26lt%3B%2Fspan%26gt%3B%22%20style%3D%22text%3Bhtml%3D1%3Balign%3Dcenter%3BverticalAlign%3Dmiddle%3BwhiteSpace%3Dwrap%3Brounded%3D0%3B%22%20vertex%3D%221%22%20parent%3D%221%22%3E%3CmxGeometry%20y%3D%22295%22%20width%3D%22110%22%20height%3D%2230%22%20as%3D%22geometry%22%2F%3E%3C%2FmxCell%3E%3C%2Froot%3E%3C%2FmxGraphModel%3E&lt;/span&gt;it quad&lt;span style=&quot;color: rgba(0, 0, 0, 0); font-family: monospace; font-size: 0px; text-align: start; text-wrap: nowrap;&quot;&gt;%3CmxGraphModel%3E%3Croot%3E%3CmxCell%20id%3D%220%22%2F%3E%3CmxCell%20id%3D%221%22%20parent%3D%220%22%2F%3E%3CmxCell%20id%3D%222%22%20value%3D%2212x%2032bit%20float%26lt%3Bspan%20style%3D%26quot%3Bcolor%3A%20rgba(0%2C%200%2C%200%2C%200)%3B%20font-family%3A%20monospace%3B%20font-size%3A%200px%3B%20text-align%3A%20start%3B%20text-wrap%3A%20nowrap%3B%26quot%3B%26gt%3B%253CmxGraphModel%253E%253Croot%253E%253CmxCell%2520id%253D%25220%2522%252F%253E%253CmxCell%2520id%253D%25221%2522%2520parent%253D%25220%2522%252F%253E%253CmxCell%2520id%253D%25222%2522%2520value%253D%252248x%25208bit%2520byte%2522%2520style%253D%2522text%253Bhtml%253D1%253Balign%253Dcenter%253BverticalAlign%253Dmiddle%253BwhiteSpace%253Dwrap%253Brounded%253D0%253B%2522%2520vertex%253D%25221%2522%2520parent%253D%25221%2522%253E%253CmxGeometry%2520y%253D%2522255%2522%2520width%253D%2522110%2522%2520height%253D%252230%2522%2520as%253D%2522geometry%2522%252F%253E%253C%252FmxCell%253E%253C%252Froot%253E%253C%252FmxGraphModel%253E%26lt%3B%2Fspan%26gt%3B%22%20style%3D%22text%3Bhtml%3D1%3Balign%3Dcenter%3BverticalAlign%3Dmiddle%3BwhiteSpace%3Dwrap%3Brounded%3D0%3B%22%20vertex%3D%221%22%20parent%3D%221%22%3E%3CmxGeometry%20y%3D%22295%22%20width%3D%22110%22%20height%3D%2230%22%20as%3D%22geometry%22%2F%3E%3C%2FmxCell%3E%3C%2Froot%3E%3C%2FmxGraphModel%3E&lt;/span&gt;&lt;span style=&quot;color: rgba(0, 0, 0, 0); font-family: monospace; font-size: 0px; text-align: start; text-wrap: nowrap;&quot;&gt;%3CmxGraphModel%3E%3Croot%3E%3CmxCell%20id%3D%220%22%2F%3E%3CmxCell%20id%3D%221%22%20parent%3D%220%22%2F%3E%3CmxCell%20id%3D%222%22%20value%3D%2248x%208bit%20byte%22%20style%3D%22text%3Bhtml%3D1%3Balign%3Dcenter%3BverticalAlign%3Dmiddle%3BwhiteSpace%3Dwrap%3Brounded%3D0%3B%22%20vertex%3D%221%22%20parent%3D%221%22%3E%3CmxGeometry%20y%3D%22255%22%20width%3D%22110%22%20height%3D%2230%22%20as%3D%22geometry%22%2F%3E%3C%2FmxCell%3E%3C%2Froot%3E%3C%2FmxGraphModel%3&lt;/span&gt;" style="text;html=1;align=center;verticalAlign=middle;whiteSpace=wrap;rounded=0;" vertex="1" parent="1">
          <mxGeometry x="583" y="260" width="100" height="30" as="geometry" />
        </mxCell>
        <mxCell id="b3PtVijSFrBXYt2F4P9U-201" value="&lt;font style=&quot;font-size: 16px;&quot;&gt;&lt;b&gt;AVX512 Data Types (16 ZMM Registers)&lt;/b&gt;&lt;/font&gt;" style="text;html=1;align=center;verticalAlign=middle;whiteSpace=wrap;rounded=0;" vertex="1" parent="1">
          <mxGeometry x="20" y="10" width="310" height="30" as="geometry" />
        </mxCell>
      </root>
    </mxGraphModel>
  </diagram>
</mxfile>
